# xmcd
#
# Track frame offsets:
#	183
#	27208
#	43695
#
# Disc length: 874 seconds
#
# Revision: 1
# Processed by: cddbd v1.4PL0 Copyright (c) Steve Scherf et al.
# Submitted via: audiograbber 1.82.00
#
DISCID=1c036803
DTITLE=Blue Blot - Who Is He [CD Single)
DYEAR=1991
DGENRE=Blues
TTITLE0=Who Is He (Remix Maxi Version)
TTITLE1=Who Is He (Remix Single Version)
TTITLE2=What Have I Done
EXTD=
EXTT0=
EXTT1=
EXTT2=
PLAYORDER=
